<svg width="54" height="55" viewBox="0 0 54 55" fill="none" xmlns="http://www.w3.org/2000/svg">
<circle cx="27" cy="27.5" r="26.5" fill="#E8F3FF" stroke="#1B85FF"/>
<path d="M30.0597 30.5554L26.5034 26.9991M26.5034 26.9991L22.9471 30.5554M26.5034 26.9991V35.0008M33.9628 32.6803C34.8299 32.2075 35.515 31.4595 35.9098 30.5542C36.3046 29.6489 36.3866 28.6378 36.143 27.6807C35.8994 26.7236 35.344 25.8748 34.5644 25.2684C33.7848 24.662 32.8255 24.3325 31.8379 24.3318H30.7176C30.4485 23.2909 29.9469 22.3246 29.2506 21.5054C28.5543 20.6863 27.6813 20.0356 26.6973 19.6024C25.7133 19.1692 24.6439 18.9647 23.5695 19.0043C22.4951 19.0439 21.4437 19.3266 20.4942 19.831C19.5448 20.3354 18.7221 21.0485 18.0879 21.9167C17.4537 22.7849 17.0246 23.7855 16.8328 24.8434C16.641 25.9013 16.6916 26.9889 16.9806 28.0244C17.2697 29.0599 17.7897 30.0165 18.5017 30.8221" stroke="#1B85FF" stroke-width="1.77816" stroke-linecap="round" stroke-linejoin="round"/>
</svg>
